<?xml version="1.0" encoding="UTF-8"?>
<svg width="189px" height="42px" viewBox="0 0 189 42" version="1.1" xmlns="http://www.w3.org/2000/svg" xmlns:xlink="http://www.w3.org/1999/xlink">
    <!-- Generator: Sketch 49.3 (51167) - http://www.bohemiancoding.com/sketch -->
    <title>logo</title>
    <desc>Created with Sketch.</desc>
    <defs>
        <linearGradient x1="50%" y1="0%" x2="50%" y2="100%" id="linearGradient-1">
            <stop stop-color="#7EBEFF" offset="0%"></stop>
            <stop stop-color="#2E6DE4" offset="100%"></stop>
        </linearGradient>
    </defs>
    <g id="Page-1" stroke="none" stroke-width="1" fill="none" fill-rule="evenodd">
        <g id="logo" fill="url(#linearGradient-1)" fill-rule="nonzero">
            <path d="M20.677365,0.0941002444 C20.021365,0.208100244 18.828365,0.534100244 18.026365,0.819100244 C17.224365,1.10410024 15.644365,1.60010024 14.514365,1.92310024 L12.460365,2.50910024 L12.460365,8.01810024 L12.460365,13.5271002 L11.068365,13.8011002 C10.303365,13.9521002 9.22936501,14.1531002 8.68236501,14.2471002 L7.68836501,14.4191002 L7.68836501,9.36910024 C7.68836501,6.59110024 7.58936501,4.25710024 7.46736501,4.18110024 C7.03136501,3.91210024 1.27436501,5.90610024 0.632365014,6.54910024 L0.00136501365,7.17910024 L0.00136501365,20.8071002 C0.00136501365,36.3481002 -0.135634986,35.4471002 2.33536501,36.1981002 C24.072365,42.8081002 20.411365,42.5011002 32.872365,38.7561002 C44.500365,35.2621002 43.474365,36.0301002 43.474365,30.8181002 C43.474365,26.3531002 43.445365,26.2891002 41.474365,26.2891002 C39.472365,26.2891002 39.232365,26.6621002 39.232365,29.7851002 L39.232365,32.3131002 L37.708365,32.7711002 C34.002365,33.8841002 30.904365,34.8281002 27.693365,35.8221002 C25.792365,36.4101002 24.152365,36.8921002 24.048365,36.8921002 C23.794365,36.8921002 23.803365,5.14510024 24.057365,5.00210024 C24.166365,4.94010024 26.403365,5.54210024 29.027365,6.33910024 C31.651365,7.13610024 35.021365,8.15610024 36.515365,8.60610024 L39.232365,9.42410024 L39.232365,13.3501002 L39.232365,17.2761002 L38.561365,17.2761002 C37.395365,17.2761002 37.563365,17.9311002 39.402365,20.5541002 C41.577365,23.6571002 41.350365,23.6571002 43.557365,20.5531002 C45.459365,17.8781002 45.591365,17.2761002 44.277365,17.2761002 L43.474365,17.2761002 L43.474365,12.2221002 C43.474365,9.44210024 43.359365,6.95410024 43.219365,6.69210024 C42.862365,6.02610024 43.228365,6.15310024 30.485365,2.29810024 C28.225365,1.61410024 25.839365,0.879100244 25.183365,0.663100244 C23.282365,0.0381002444 21.958365,-0.128899756 20.677365,0.0941002444 M146.533365,15.2451002 C142.878365,16.2781002 141.073365,19.9331002 142.580365,23.2511002 C144.607365,27.7131002 154.443365,27.9851002 156.660365,23.6401002 C159.484365,18.1041002 153.621365,13.2431002 146.533365,15.2451002 M58.644365,20.7881002 L58.715365,26.4211002 L60.107365,26.5011002 L61.499365,26.5811002 L61.499365,20.8681002 L61.499365,15.1551002 L60.036365,15.1551002 L58.572365,15.1551002 L58.644365,20.7881002 M65.063365,15.4941002 C64.992365,15.6811002 64.966365,18.2151002 65.005365,21.1271002 L65.077365,26.4211002 L66.535365,26.4211002 L67.993365,26.4211002 L68.067365,22.7761002 C68.107365,20.7721002 68.235365,19.1311002 68.350365,19.1311002 C68.465365,19.1311002 70.210365,20.8071002 72.227365,22.8551002 L75.896365,26.5781002 L77.379365,26.4991002 L78.861365,26.4211002 L78.933365,20.7881002 L79.004365,15.1551002 L77.541365,15.1551002 L76.078365,15.1551002 L76.078365,19.0621002 L76.078365,22.9681002 L72.165365,19.0621002 L68.252365,15.1551002 L66.723365,15.1551002 C65.726365,15.1551002 65.148365,15.2731002 65.063365,15.4941002 M83.712365,20.7881002 L86.584365,26.4211002 L88.314365,26.4991002 L90.045365,26.5761002 L92.869365,21.0191002 C96.204365,14.4581002 96.059365,15.1551002 94.084365,15.1551002 L92.474365,15.1551002 L90.504365,19.2641002 C89.420365,21.5241002 88.469365,23.3731002 88.390365,23.3731002 C88.311365,23.3731002 87.346365,21.5241002 86.246365,19.2641002 L84.244365,15.1551002 L82.542365,15.1551002 L80.840365,15.1551002 L83.712365,20.7881002 M97.875365,20.7881002 L97.947365,26.4211002 L103.513365,26.4211002 L109.080365,26.4211002 L109.161365,25.3011002 L109.242365,24.1821002 L105.052365,24.1081002 L100.863365,24.0351002 L100.863365,22.9751002 L100.863365,21.9151002 L104.772365,21.8411002 L108.682365,21.7681002 L108.682365,20.5891002 L108.682365,19.4111002 L104.772365,19.3371002 L100.863365,19.2641002 L100.863365,18.4691002 L100.863365,17.6741002 L104.971365,17.5411002 L109.080365,17.4081002 L109.161365,16.2821002 L109.243365,15.1551002 L103.523365,15.1551002 L97.804365,15.1551002 L97.875365,20.7881002 M112.189365,20.7881002 L112.261365,26.4211002 L113.719365,26.4211002 L115.177365,26.4211002 L115.251365,22.5771002 L115.326365,18.7341002 L119.140365,22.6581002 L122.955365,26.5811002 L124.500365,26.5011002 L126.045365,26.4211002 L126.116365,20.7751002 L126.188365,15.1291002 L124.659365,15.2081002 L123.129365,15.2881002 L122.996365,18.9371002 L122.864365,22.5871002 L119.156365,18.8711002 L115.449365,15.1551002 L113.783365,15.1551002 L112.118365,15.1551002 L112.189365,20.7881002 M128.084365,16.2821002 L128.165365,17.4081002 L130.479365,17.4851002 L132.792365,17.5611002 L132.864365,21.9911002 L132.937365,26.4211002 L134.395365,26.4211002 L135.853365,26.4211002 L135.985365,22.0471002 L136.118365,17.6741002 L138.437365,17.5971002 L140.757365,17.5201002 L140.757365,16.3381002 L140.757365,15.1551002 L134.379365,15.1551002 L128.002365,15.1551002 L128.084365,16.2821002 M160.168365,20.7671002 L160.240365,26.4211002 L161.698365,26.4211002 L163.156365,26.4211002 L163.233365,24.3671002 L163.310365,22.3121002 L164.956365,22.3151002 L166.602365,22.3171002 L168.324365,24.4331002 L170.047365,26.5491002 L171.527365,26.5521002 C173.554365,26.5541002 173.556365,26.5061002 171.622365,24.1681002 C169.642365,21.7741002 169.700365,21.9361002 170.668365,21.5351002 C172.682365,20.7001002 172.772365,17.1331002 170.813365,15.8061002 C170.134365,15.3471002 169.484365,15.2781002 165.072365,15.2011002 L160.096365,15.1141002 L160.168365,20.7671002 M174.711365,15.6191002 C175.123365,16.1571002 178.551365,20.3551002 179.171365,21.0801002 C179.460365,21.4181002 179.631365,22.3231002 179.723365,23.9961002 L179.855365,26.4211002 L181.247365,26.5011002 L182.639365,26.5811002 L182.639365,24.3211002 L182.639365,22.0611002 L185.416365,18.6081002 L188.194365,15.1551002 L186.494365,15.1551002 L184.793365,15.1551002 L183.153365,17.2761002 C181.160365,19.8511002 181.284365,19.8521002 179.325365,17.2701002 L177.735365,15.1731002 L176.046365,15.1641002 C174.478365,15.1561002 174.382365,15.1891002 174.711365,15.6191002 M152.336365,17.7911002 C155.423365,19.1921002 154.716365,23.4231002 151.271365,24.1621002 C147.715365,24.9251002 145.263365,23.4961002 145.263365,20.6621002 C145.263365,17.8771002 149.097365,16.3211002 152.336365,17.7911002 M168.802365,17.8591002 C168.977365,18.0341002 169.120365,18.4281002 169.120365,18.7341002 C169.120365,19.7411002 168.618365,19.9271002 165.886365,19.9271002 L163.288365,19.9271002 L163.288365,18.7341002 L163.288365,17.5411002 L165.886365,17.5411002 C167.553365,17.5411002 168.598365,17.6551002 168.802365,17.8591002"></path>
        </g>
    </g>
</svg>